<svg xmlns="http://www.w3.org/2000/svg" viewBox="0 0 754.68 486.55"><defs><style>.cls-1{fill:#fff;}</style></defs><title>CALUMA WHITE SVG</title><g id="Layer_2" data-name="Layer 2"><g id="Layer_1-2" data-name="Layer 1"><path class="cls-1" d="M0,428.56a67.91,67.91,0,0,1,3.81-23,54.51,54.51,0,0,1,10.9-18.52A49.77,49.77,0,0,1,32,374.81a56.49,56.49,0,0,1,22.85-4.45,77.48,77.48,0,0,1,29.63,5.72L78.94,397a58.55,58.55,0,0,0-10-3.18,54.5,54.5,0,0,0-12-1.26q-15,0-22.86,9.41t-7.83,26.56q0,16.51,7.41,26.14t25,9.63a65.41,65.41,0,0,0,12.91-1.27,62.05,62.05,0,0,0,11-3.17l3.59,21.16q-4.23,2.11-12.8,3.81a90.89,90.89,0,0,1-17.67,1.69q-14.17,0-24.66-4.34a46.72,46.72,0,0,1-17.35-12.06A49.85,49.85,0,0,1,3.39,451.74,76.31,76.31,0,0,1,0,428.56Zm159.78-58.2q12.71,0,21.38,3.18A34.11,34.11,0,0,1,195,382.43a33.49,33.49,0,0,1,7.41,13.86,67.87,67.87,0,0,1,2.22,17.88v67.09q-5.93,1.28-17.89,3.07a182.43,182.43,0,0,1-27,1.8,81,81,0,0,1-18.2-1.91,38.29,38.29,0,0,1-14.07-6.13,28.77,28.77,0,0,1-9.1-11q-3.28-6.76-3.28-16.72,0-9.53,3.7-16.08a30.45,30.45,0,0,1,10-10.69,43.57,43.57,0,0,1,14.71-5.93,83.37,83.37,0,0,1,17.46-1.8,79.61,79.61,0,0,1,8.89.53,86.06,86.06,0,0,1,9.95,1.8V414a33.49,33.49,0,0,0-1.06-8.47,16.95,16.95,0,0,0-10.69-11.85,30.43,30.43,0,0,0-10.9-1.69A96.27,96.27,0,0,0,141,393.22a71.85,71.85,0,0,0-12.07,3l-3.17-20.74a100.72,100.72,0,0,1,14.18-3.38A110.91,110.91,0,0,1,159.78,370.36Zm2.12,95.45q11.85,0,18-1.27V436.18a50.28,50.28,0,0,0-6.14-1.27,57.71,57.71,0,0,0-8.89-.63,59.56,59.56,0,0,0-8.57.63,26.52,26.52,0,0,0-7.83,2.33,14.24,14.24,0,0,0-5.61,4.76,13.34,13.34,0,0,0-2.12,7.73q0,9.11,5.72,12.59T161.9,465.81Zm129.51,20.11a69.55,69.55,0,0,1-18.94-2.54,29.26,29.26,0,0,1-12-6.67,23.57,23.57,0,0,1-6.25-10.79,54.88,54.88,0,0,1-1.79-14.71V363.14l25.6-4.23v87.43a35.32,35.32,0,0,0,.74,7.83,12.57,12.57,0,0,0,2.65,5.4,11.8,11.8,0,0,0,5.18,3.38,40.21,40.21,0,0,0,8.36,1.8Zm132.07-5.51q-7.43,1.9-19.26,3.92a156.24,156.24,0,0,1-26,2q-13.32,0-22.32-3.81A35.71,35.71,0,0,1,341.47,472a41.59,41.59,0,0,1-7.73-16.19,86,86,0,0,1-2.33-20.63v-62H357v58q0,17.77,5.19,25.4t18.09,7.62q4.65,0,9.84-.43a52.59,52.59,0,0,0,7.73-1.05V373.11h25.61ZM536.06,425.6q0-17.36-4.34-25.08t-16.19-7.72a76.16,76.16,0,0,0-9.31.63c-3.38.42-5.92.78-7.62,1.06V483.8H473V376.71a173.53,173.53,0,0,1,19.37-4,160.71,160.71,0,0,1,25.29-1.9q11.43,0,18.73,3a36.37,36.37,0,0,1,12.17,7.83,49.38,49.38,0,0,1,5.92-3.6,61.18,61.18,0,0,1,8-3.49,72.23,72.23,0,0,1,9.41-2.64A47.94,47.94,0,0,1,582,370.79q12.9,0,21.27,3.7a31.33,31.33,0,0,1,13.12,10.37,40.37,40.37,0,0,1,6.56,16.08,110.16,110.16,0,0,1,1.8,20.64V483.8H599.13V425.6q0-17.36-4.23-25.08t-16.3-7.72a33.67,33.67,0,0,0-11.64,2,37.73,37.73,0,0,0-8.25,3.91A56.91,56.91,0,0,1,561,409.94a117.61,117.61,0,0,1,.64,12.7V483.8H536.06Zm173.75-55.24q12.71,0,21.38,3.18a34.11,34.11,0,0,1,13.86,8.89,33.37,33.37,0,0,1,7.41,13.86,67.87,67.87,0,0,1,2.22,17.88v67.09q-5.92,1.28-17.89,3.07a182.43,182.43,0,0,1-27,1.8,81,81,0,0,1-18.2-1.91,38.29,38.29,0,0,1-14.07-6.13,28.86,28.86,0,0,1-9.1-11q-3.29-6.76-3.28-16.72,0-9.53,3.7-16.08a30.45,30.45,0,0,1,10-10.69,43.66,43.66,0,0,1,14.71-5.93,83.37,83.37,0,0,1,17.46-1.8,79.47,79.47,0,0,1,8.89.53,86.06,86.06,0,0,1,9.95,1.8V414a33.49,33.49,0,0,0-1.06-8.47,16.89,16.89,0,0,0-10.69-11.85,30.43,30.43,0,0,0-10.9-1.69A96.27,96.27,0,0,0,691,393.22a72.09,72.09,0,0,0-12.07,3l-3.17-20.74a100.72,100.72,0,0,1,14.18-3.38A111.07,111.07,0,0,1,709.81,370.36Zm2.12,95.45q11.85,0,18-1.27V436.18a50.28,50.28,0,0,0-6.14-1.27,57.71,57.71,0,0,0-8.89-.63,59.56,59.56,0,0,0-8.57.63,26.61,26.61,0,0,0-7.83,2.33,14.24,14.24,0,0,0-5.61,4.76,13.34,13.34,0,0,0-2.11,7.73q0,9.11,5.71,12.59T711.93,465.81Z"/><path class="cls-1" d="M463.09,233a121.94,121.94,0,0,0,33.51-22.89,135.55,135.55,0,1,1-96.47-209,121.85,121.85,0,1,0,63,231.89Z"/><path class="cls-1" d="M485.34,88.47a61.78,61.78,0,1,1-82-30.19A61.77,61.77,0,0,1,485.34,88.47Z"/><path class="cls-1" d="M507,148.6A98.53,98.53,0,1,1,453.59,33,84.95,84.95,0,1,0,507,148.6Z"/><path class="cls-1" d="M485.34,88.47a61.78,61.78,0,1,1-82-30.19A61.77,61.77,0,0,1,485.34,88.47Z"/><path class="cls-1" d="M507,148.6A98.53,98.53,0,1,1,453.59,33,84.95,84.95,0,1,0,507,148.6Z"/><path class="cls-1" d="M485.34,88.47a61.78,61.78,0,1,1-82-30.19A61.77,61.77,0,0,1,485.34,88.47Z"/><path class="cls-1" d="M507,148.6A98.53,98.53,0,1,1,453.59,33,84.95,84.95,0,1,0,507,148.6Z"/><path class="cls-1" d="M455.16,170.45a61.78,61.78,0,1,1,30.18-82A61.78,61.78,0,0,1,455.16,170.45Z"/><path class="cls-1" d="M455.16,170.45a61.78,61.78,0,1,1,30.18-82A61.78,61.78,0,0,1,455.16,170.45Z"/></g></g></svg>